<mxfile host="Electron" modified="2023-10-15T02:55:16.456Z" agent="Mozilla/5.0 (Windows NT 10.0; Win64; x64) AppleWebKit/537.36 (KHTML, like Gecko) draw.io/22.0.2 Chrome/114.0.5735.289 Electron/25.8.4 Safari/537.36" etag="RgGXs26II26-ai0Ub9KD" version="22.0.2" type="device">
  <diagram id="vsvYQdFWJ4DdqGJXs5j1" name="Trang-1">
    <mxGraphModel dx="1276" dy="606" grid="1" gridSize="10" guides="1" tooltips="1" connect="1" arrows="1" fold="1" page="1" pageScale="1" pageWidth="827" pageHeight="1169" math="0" shadow="0">
      <root>
        <mxCell id="0" />
        <mxCell id="1" parent="0" />
        <mxCell id="6ZxEwk8CFZcRqp-UA7ZT-1" value="&lt;font style=&quot;font-size: 18px;&quot;&gt;Khách Nhận&lt;/font&gt;" style="text;html=1;align=center;verticalAlign=middle;resizable=0;points=[];autosize=1;strokeColor=none;fillColor=none;" parent="1" vertex="1">
          <mxGeometry x="1920" width="120" height="40" as="geometry" />
        </mxCell>
        <mxCell id="6ZxEwk8CFZcRqp-UA7ZT-2" value="" style="endArrow=none;dashed=1;html=1;rounded=0;strokeWidth=2;" parent="1" edge="1">
          <mxGeometry width="50" height="50" relative="1" as="geometry">
            <mxPoint x="200" y="2320" as="sourcePoint" />
            <mxPoint x="200" y="3" as="targetPoint" />
          </mxGeometry>
        </mxCell>
        <mxCell id="6ZxEwk8CFZcRqp-UA7ZT-3" value="&lt;font style=&quot;font-size: 18px;&quot;&gt;Shop&lt;/font&gt;" style="text;html=1;align=center;verticalAlign=middle;resizable=0;points=[];autosize=1;strokeColor=none;fillColor=none;" parent="1" vertex="1">
          <mxGeometry x="260" y="3" width="70" height="40" as="geometry" />
        </mxCell>
        <mxCell id="6ZxEwk8CFZcRqp-UA7ZT-4" value="" style="endArrow=none;dashed=1;html=1;rounded=0;strokeWidth=2;" parent="1" edge="1">
          <mxGeometry width="50" height="50" relative="1" as="geometry">
            <mxPoint x="440" y="2320" as="sourcePoint" />
            <mxPoint x="440" y="3" as="targetPoint" />
          </mxGeometry>
        </mxCell>
        <mxCell id="6ZxEwk8CFZcRqp-UA7ZT-5" value="&lt;font style=&quot;font-size: 18px;&quot;&gt;Shipper ĐT&lt;/font&gt;" style="text;html=1;align=center;verticalAlign=middle;resizable=0;points=[];autosize=1;strokeColor=none;fillColor=none;" parent="1" vertex="1">
          <mxGeometry x="1640" y="3" width="110" height="40" as="geometry" />
        </mxCell>
        <mxCell id="6ZxEwk8CFZcRqp-UA7ZT-6" value="" style="endArrow=none;dashed=1;html=1;rounded=0;strokeWidth=2;" parent="1" edge="1">
          <mxGeometry width="50" height="50" relative="1" as="geometry">
            <mxPoint x="720" y="2317.5" as="sourcePoint" />
            <mxPoint x="720" y="2.5" as="targetPoint" />
          </mxGeometry>
        </mxCell>
        <mxCell id="6ZxEwk8CFZcRqp-UA7ZT-7" value="&lt;font style=&quot;font-size: 18px;&quot;&gt;Đối Tác&lt;/font&gt;" style="text;html=1;align=center;verticalAlign=middle;resizable=0;points=[];autosize=1;strokeColor=none;fillColor=none;" parent="1" vertex="1">
          <mxGeometry x="1325" y="3" width="90" height="40" as="geometry" />
        </mxCell>
        <mxCell id="6ZxEwk8CFZcRqp-UA7ZT-8" value="" style="endArrow=none;dashed=1;html=1;rounded=0;strokeWidth=2;" parent="1" edge="1">
          <mxGeometry width="50" height="50" relative="1" as="geometry">
            <mxPoint x="960" y="2318.5" as="sourcePoint" />
            <mxPoint x="960" y="1.5" as="targetPoint" />
          </mxGeometry>
        </mxCell>
        <mxCell id="6ZxEwk8CFZcRqp-UA7ZT-9" value="&lt;font style=&quot;font-size: 18px;&quot;&gt;Hệ Thống&lt;/font&gt;" style="text;html=1;align=center;verticalAlign=middle;resizable=0;points=[];autosize=1;strokeColor=none;fillColor=none;" parent="1" vertex="1">
          <mxGeometry x="1070" y="3" width="100" height="40" as="geometry" />
        </mxCell>
        <mxCell id="6ZxEwk8CFZcRqp-UA7ZT-10" value="" style="endArrow=none;dashed=1;html=1;rounded=0;strokeWidth=2;" parent="1" edge="1">
          <mxGeometry width="50" height="50" relative="1" as="geometry">
            <mxPoint x="1241" y="2320" as="sourcePoint" />
            <mxPoint x="1241" y="3" as="targetPoint" />
          </mxGeometry>
        </mxCell>
        <mxCell id="6ZxEwk8CFZcRqp-UA7ZT-11" value="&lt;font style=&quot;font-size: 18px;&quot;&gt;Tổng&lt;/font&gt;" style="text;html=1;align=center;verticalAlign=middle;resizable=0;points=[];autosize=1;strokeColor=none;fillColor=none;" parent="1" vertex="1">
          <mxGeometry x="820" y="3" width="60" height="40" as="geometry" />
        </mxCell>
        <mxCell id="6ZxEwk8CFZcRqp-UA7ZT-12" value="" style="endArrow=none;dashed=1;html=1;rounded=0;strokeWidth=2;" parent="1" edge="1">
          <mxGeometry width="50" height="50" relative="1" as="geometry">
            <mxPoint x="1550" y="2320" as="sourcePoint" />
            <mxPoint x="1550" y="3" as="targetPoint" />
          </mxGeometry>
        </mxCell>
        <mxCell id="6ZxEwk8CFZcRqp-UA7ZT-13" value="&lt;font style=&quot;font-size: 18px;&quot;&gt;Bưu Cục&lt;/font&gt;" style="text;html=1;align=center;verticalAlign=middle;resizable=0;points=[];autosize=1;strokeColor=none;fillColor=none;" parent="1" vertex="1">
          <mxGeometry x="575" y="3" width="90" height="40" as="geometry" />
        </mxCell>
        <mxCell id="6ZxEwk8CFZcRqp-UA7ZT-20" value="Start-0001" style="strokeWidth=2;html=1;shape=mxgraph.flowchart.terminator;whiteSpace=wrap;fillColor=#ffe6cc;strokeColor=#d79b00;" parent="1" vertex="1">
          <mxGeometry x="250" y="80" width="115" height="50" as="geometry" />
        </mxCell>
        <mxCell id="6ZxEwk8CFZcRqp-UA7ZT-22" value="Trạng thái &quot;Đang chờ lấy&quot;" style="rounded=0;whiteSpace=wrap;html=1;fillColor=#1ba1e2;fontColor=#ffffff;strokeColor=#006EAF;" parent="1" vertex="1">
          <mxGeometry x="1030" y="75" width="120" height="60" as="geometry" />
        </mxCell>
        <mxCell id="6ZxEwk8CFZcRqp-UA7ZT-23" value="" style="endArrow=classic;html=1;rounded=0;exitX=1;exitY=0.5;exitDx=0;exitDy=0;exitPerimeter=0;entryX=0;entryY=0.5;entryDx=0;entryDy=0;" parent="1" source="6ZxEwk8CFZcRqp-UA7ZT-20" target="6ZxEwk8CFZcRqp-UA7ZT-22" edge="1">
          <mxGeometry width="50" height="50" relative="1" as="geometry">
            <mxPoint x="700" y="240" as="sourcePoint" />
            <mxPoint x="1170" y="100" as="targetPoint" />
          </mxGeometry>
        </mxCell>
        <mxCell id="6ZxEwk8CFZcRqp-UA7ZT-24" value="Lấy hàng" style="rounded=0;whiteSpace=wrap;html=1;fillColor=#1ba1e2;fontColor=#ffffff;strokeColor=#006EAF;" parent="1" vertex="1">
          <mxGeometry x="530" y="140" width="120" height="60" as="geometry" />
        </mxCell>
        <mxCell id="6ZxEwk8CFZcRqp-UA7ZT-25" value="" style="endArrow=classic;html=1;rounded=0;exitX=0.5;exitY=1;exitDx=0;exitDy=0;entryX=1;entryY=0.5;entryDx=0;entryDy=0;edgeStyle=orthogonalEdgeStyle;" parent="1" source="6ZxEwk8CFZcRqp-UA7ZT-22" target="6ZxEwk8CFZcRqp-UA7ZT-24" edge="1">
          <mxGeometry width="50" height="50" relative="1" as="geometry">
            <mxPoint x="1400" y="240" as="sourcePoint" />
            <mxPoint x="1450" y="190" as="targetPoint" />
          </mxGeometry>
        </mxCell>
        <mxCell id="6ZxEwk8CFZcRqp-UA7ZT-26" value="1001-Trừ ví vận hành bưu cục sale(Trừ phí dịch vụ bưu cục sale)" style="rounded=0;whiteSpace=wrap;html=1;fillColor=#008a00;strokeColor=#005700;fontColor=#ffffff;" parent="1" vertex="1">
          <mxGeometry x="1030" y="190" width="120" height="60" as="geometry" />
        </mxCell>
        <mxCell id="6ZxEwk8CFZcRqp-UA7ZT-27" value="" style="endArrow=classic;html=1;rounded=0;entryX=0;entryY=0.5;entryDx=0;entryDy=0;exitX=0.5;exitY=1;exitDx=0;exitDy=0;edgeStyle=orthogonalEdgeStyle;" parent="1" source="6ZxEwk8CFZcRqp-UA7ZT-24" target="6ZxEwk8CFZcRqp-UA7ZT-26" edge="1">
          <mxGeometry width="50" height="50" relative="1" as="geometry">
            <mxPoint x="1700" y="150" as="sourcePoint" />
            <mxPoint x="1750" y="100" as="targetPoint" />
            <Array as="points">
              <mxPoint x="590" y="220" />
            </Array>
          </mxGeometry>
        </mxCell>
        <mxCell id="6ZxEwk8CFZcRqp-UA7ZT-28" value="1003-Trừ ví vận hành bưu cục sale(Trừ công lấy đơn)" style="rounded=0;whiteSpace=wrap;html=1;fillColor=#008a00;strokeColor=#005700;fontColor=#ffffff;" parent="1" vertex="1">
          <mxGeometry x="1030" y="290" width="120" height="60" as="geometry" />
        </mxCell>
        <mxCell id="6ZxEwk8CFZcRqp-UA7ZT-29" value="" style="endArrow=classic;html=1;rounded=0;entryX=0.5;entryY=0;entryDx=0;entryDy=0;exitX=0.5;exitY=1;exitDx=0;exitDy=0;" parent="1" source="6ZxEwk8CFZcRqp-UA7ZT-26" target="6ZxEwk8CFZcRqp-UA7ZT-28" edge="1">
          <mxGeometry width="50" height="50" relative="1" as="geometry">
            <mxPoint x="1700" y="250" as="sourcePoint" />
            <mxPoint x="1750" y="200" as="targetPoint" />
          </mxGeometry>
        </mxCell>
        <mxCell id="6ZxEwk8CFZcRqp-UA7ZT-30" value="Trạng thái &quot;Chờ nhập bưu cục&quot;" style="rounded=0;whiteSpace=wrap;html=1;fillColor=#1ba1e2;fontColor=#ffffff;strokeColor=#006EAF;" parent="1" vertex="1">
          <mxGeometry x="1030" y="390" width="120" height="60" as="geometry" />
        </mxCell>
        <mxCell id="6ZxEwk8CFZcRqp-UA7ZT-31" value="" style="endArrow=classic;html=1;rounded=0;exitX=0.5;exitY=1;exitDx=0;exitDy=0;entryX=0.5;entryY=0;entryDx=0;entryDy=0;" parent="1" source="6ZxEwk8CFZcRqp-UA7ZT-28" target="6ZxEwk8CFZcRqp-UA7ZT-30" edge="1">
          <mxGeometry width="50" height="50" relative="1" as="geometry">
            <mxPoint x="1500" y="250" as="sourcePoint" />
            <mxPoint x="1550" y="200" as="targetPoint" />
          </mxGeometry>
        </mxCell>
        <mxCell id="6ZxEwk8CFZcRqp-UA7ZT-32" value="Quét nhập bưu cục" style="rounded=0;whiteSpace=wrap;html=1;fillColor=#1ba1e2;fontColor=#ffffff;strokeColor=#006EAF;" parent="1" vertex="1">
          <mxGeometry x="530" y="390" width="120" height="60" as="geometry" />
        </mxCell>
        <mxCell id="6ZxEwk8CFZcRqp-UA7ZT-33" value="" style="endArrow=classic;html=1;rounded=0;entryX=1;entryY=0.5;entryDx=0;entryDy=0;exitX=0;exitY=0.5;exitDx=0;exitDy=0;" parent="1" source="6ZxEwk8CFZcRqp-UA7ZT-30" target="6ZxEwk8CFZcRqp-UA7ZT-32" edge="1">
          <mxGeometry width="50" height="50" relative="1" as="geometry">
            <mxPoint x="1200" y="420" as="sourcePoint" />
            <mxPoint x="1550" y="300" as="targetPoint" />
          </mxGeometry>
        </mxCell>
        <mxCell id="6ZxEwk8CFZcRqp-UA7ZT-34" value="2002-Cộng ví vận hành bưu cục lấy(Cộng công lấy đơn)" style="rounded=0;whiteSpace=wrap;html=1;fillColor=#008a00;strokeColor=#005700;fontColor=#ffffff;" parent="1" vertex="1">
          <mxGeometry x="1030" y="490" width="120" height="60" as="geometry" />
        </mxCell>
        <mxCell id="6ZxEwk8CFZcRqp-UA7ZT-35" value="" style="endArrow=classic;html=1;rounded=0;exitX=0.5;exitY=1;exitDx=0;exitDy=0;entryX=0;entryY=0.5;entryDx=0;entryDy=0;edgeStyle=orthogonalEdgeStyle;" parent="1" source="6ZxEwk8CFZcRqp-UA7ZT-32" target="6ZxEwk8CFZcRqp-UA7ZT-34" edge="1">
          <mxGeometry width="50" height="50" relative="1" as="geometry">
            <mxPoint x="1500" y="550" as="sourcePoint" />
            <mxPoint x="1550" y="500" as="targetPoint" />
          </mxGeometry>
        </mxCell>
        <mxCell id="6ZxEwk8CFZcRqp-UA7ZT-36" value="Quét xuất đơn chuyển tiếp đối tác" style="rounded=0;whiteSpace=wrap;html=1;fillColor=#1ba1e2;fontColor=#ffffff;strokeColor=#006EAF;" parent="1" vertex="1">
          <mxGeometry x="530" y="590" width="120" height="60" as="geometry" />
        </mxCell>
        <mxCell id="6ZxEwk8CFZcRqp-UA7ZT-37" value="" style="endArrow=classic;html=1;rounded=0;exitX=0;exitY=0.5;exitDx=0;exitDy=0;entryX=1;entryY=0.5;entryDx=0;entryDy=0;" parent="1" source="6ZxEwk8CFZcRqp-UA7ZT-44" target="6ZxEwk8CFZcRqp-UA7ZT-36" edge="1">
          <mxGeometry width="50" height="50" relative="1" as="geometry">
            <mxPoint x="1500" y="650" as="sourcePoint" />
            <mxPoint x="1550" y="600" as="targetPoint" />
          </mxGeometry>
        </mxCell>
        <mxCell id="6ZxEwk8CFZcRqp-UA7ZT-38" value="1002-Cộng ví vận hành bưu cục sale(Cộng reset phí dịch vụ bưu cục sale)" style="rounded=0;whiteSpace=wrap;html=1;fillColor=#008a00;strokeColor=#005700;fontColor=#ffffff;" parent="1" vertex="1">
          <mxGeometry x="1040" y="740" width="120" height="60" as="geometry" />
        </mxCell>
        <mxCell id="6ZxEwk8CFZcRqp-UA7ZT-39" value="1001-Trừ ví vận hành bưu cục sale(Trừ phí dịch vụ bưu cục sale)" style="rounded=0;whiteSpace=wrap;html=1;fillColor=#008a00;strokeColor=#005700;fontColor=#ffffff;" parent="1" vertex="1">
          <mxGeometry x="1040" y="850" width="120" height="60" as="geometry" />
        </mxCell>
        <mxCell id="6ZxEwk8CFZcRqp-UA7ZT-40" value="" style="endArrow=classic;html=1;rounded=0;exitX=0.5;exitY=1;exitDx=0;exitDy=0;entryX=0.5;entryY=0;entryDx=0;entryDy=0;edgeStyle=orthogonalEdgeStyle;" parent="1" source="6ZxEwk8CFZcRqp-UA7ZT-36" target="6ZxEwk8CFZcRqp-UA7ZT-38" edge="1">
          <mxGeometry width="50" height="50" relative="1" as="geometry">
            <mxPoint x="1500" y="750" as="sourcePoint" />
            <mxPoint x="1550" y="700" as="targetPoint" />
          </mxGeometry>
        </mxCell>
        <mxCell id="6ZxEwk8CFZcRqp-UA7ZT-41" value="" style="endArrow=classic;html=1;rounded=0;exitX=0.5;exitY=1;exitDx=0;exitDy=0;entryX=0.5;entryY=0;entryDx=0;entryDy=0;" parent="1" source="6ZxEwk8CFZcRqp-UA7ZT-38" target="6ZxEwk8CFZcRqp-UA7ZT-39" edge="1">
          <mxGeometry width="50" height="50" relative="1" as="geometry">
            <mxPoint x="1500" y="750" as="sourcePoint" />
            <mxPoint x="1270" y="870" as="targetPoint" />
          </mxGeometry>
        </mxCell>
        <mxCell id="6ZxEwk8CFZcRqp-UA7ZT-42" value="Trạng thái &quot;Đang vận chuyển&quot;" style="rounded=0;whiteSpace=wrap;html=1;fillColor=#1ba1e2;fontColor=#ffffff;strokeColor=#006EAF;" parent="1" vertex="1">
          <mxGeometry x="1040" y="970" width="120" height="60" as="geometry" />
        </mxCell>
        <mxCell id="6ZxEwk8CFZcRqp-UA7ZT-43" value="" style="endArrow=classic;html=1;rounded=0;exitX=0.5;exitY=1;exitDx=0;exitDy=0;entryX=0.5;entryY=0;entryDx=0;entryDy=0;" parent="1" source="6ZxEwk8CFZcRqp-UA7ZT-39" target="6ZxEwk8CFZcRqp-UA7ZT-42" edge="1">
          <mxGeometry width="50" height="50" relative="1" as="geometry">
            <mxPoint x="1500" y="1050" as="sourcePoint" />
            <mxPoint x="1550" y="1000" as="targetPoint" />
          </mxGeometry>
        </mxCell>
        <mxCell id="6ZxEwk8CFZcRqp-UA7ZT-44" value="Trạng thái &quot;Chờ chuyển tiếp&quot;" style="rounded=0;whiteSpace=wrap;html=1;fillColor=#1ba1e2;fontColor=#ffffff;strokeColor=#006EAF;" parent="1" vertex="1">
          <mxGeometry x="1030" y="590" width="120" height="60" as="geometry" />
        </mxCell>
        <mxCell id="6ZxEwk8CFZcRqp-UA7ZT-45" value="" style="endArrow=classic;html=1;rounded=0;exitX=0.5;exitY=1;exitDx=0;exitDy=0;entryX=0.5;entryY=0;entryDx=0;entryDy=0;" parent="1" source="6ZxEwk8CFZcRqp-UA7ZT-34" target="6ZxEwk8CFZcRqp-UA7ZT-44" edge="1">
          <mxGeometry width="50" height="50" relative="1" as="geometry">
            <mxPoint x="1500" y="650" as="sourcePoint" />
            <mxPoint x="1550" y="600" as="targetPoint" />
          </mxGeometry>
        </mxCell>
        <mxCell id="6ZxEwk8CFZcRqp-UA7ZT-46" value="Tự động tạo đơn hàng" style="rounded=0;whiteSpace=wrap;html=1;fillColor=#1ba1e2;fontColor=#ffffff;strokeColor=#006EAF;" parent="1" vertex="1">
          <mxGeometry x="1280" y="830" width="120" height="60" as="geometry" />
        </mxCell>
        <mxCell id="6ZxEwk8CFZcRqp-UA7ZT-47" value="" style="endArrow=classic;html=1;rounded=0;entryX=0;entryY=0.5;entryDx=0;entryDy=0;edgeStyle=orthogonalEdgeStyle;exitX=1;exitY=0.5;exitDx=0;exitDy=0;" parent="1" source="6ZxEwk8CFZcRqp-UA7ZT-42" target="6ZxEwk8CFZcRqp-UA7ZT-46" edge="1">
          <mxGeometry width="50" height="50" relative="1" as="geometry">
            <mxPoint x="1320" y="1000" as="sourcePoint" />
            <mxPoint x="1510" y="1000" as="targetPoint" />
          </mxGeometry>
        </mxCell>
        <mxCell id="6ZxEwk8CFZcRqp-UA7ZT-49" value="" style="endArrow=classic;html=1;rounded=0;exitX=1;exitY=0.5;exitDx=0;exitDy=0;entryX=0;entryY=0.5;entryDx=0;entryDy=0;edgeStyle=orthogonalEdgeStyle;strokeWidth=1;" parent="1" source="6ZxEwk8CFZcRqp-UA7ZT-85" target="6ZxEwk8CFZcRqp-UA7ZT-56" edge="1">
          <mxGeometry width="50" height="50" relative="1" as="geometry">
            <mxPoint x="1640" y="1050" as="sourcePoint" />
            <mxPoint x="1840" y="860" as="targetPoint" />
            <Array as="points">
              <mxPoint x="1500" y="1190" />
              <mxPoint x="1500" y="860" />
            </Array>
          </mxGeometry>
        </mxCell>
        <mxCell id="6ZxEwk8CFZcRqp-UA7ZT-87" value="&lt;font style=&quot;font-size: 13px;&quot;&gt;Không&lt;/font&gt;" style="edgeLabel;html=1;align=center;verticalAlign=middle;resizable=0;points=[];" parent="6ZxEwk8CFZcRqp-UA7ZT-49" vertex="1" connectable="0">
          <mxGeometry x="0.0171" y="-1" relative="1" as="geometry">
            <mxPoint y="-56" as="offset" />
          </mxGeometry>
        </mxCell>
        <mxCell id="6ZxEwk8CFZcRqp-UA7ZT-50" value="" style="endArrow=none;dashed=1;html=1;rounded=0;strokeWidth=2;" parent="1" edge="1">
          <mxGeometry width="50" height="50" relative="1" as="geometry">
            <mxPoint x="1880" y="2320" as="sourcePoint" />
            <mxPoint x="1880" y="3" as="targetPoint" />
          </mxGeometry>
        </mxCell>
        <mxCell id="6ZxEwk8CFZcRqp-UA7ZT-51" value="" style="endArrow=none;dashed=1;html=1;rounded=0;strokeWidth=2;" parent="1" edge="1">
          <mxGeometry width="50" height="50" relative="1" as="geometry">
            <mxPoint x="2080" y="2320" as="sourcePoint" />
            <mxPoint x="2080" y="3" as="targetPoint" />
          </mxGeometry>
        </mxCell>
        <mxCell id="6ZxEwk8CFZcRqp-UA7ZT-56" value="Báo hoàn 1 phần" style="rhombus;whiteSpace=wrap;html=1;fillColor=#fff2cc;strokeColor=#d6b656;gradientColor=#ffd966;" parent="1" vertex="1">
          <mxGeometry x="1574" y="820" width="80" height="80" as="geometry" />
        </mxCell>
        <mxCell id="6ZxEwk8CFZcRqp-UA7ZT-57" value="" style="endArrow=classic;html=1;rounded=0;exitX=0.5;exitY=0;exitDx=0;exitDy=0;entryX=0;entryY=0.5;entryDx=0;entryDy=0;edgeStyle=orthogonalEdgeStyle;" parent="1" source="6ZxEwk8CFZcRqp-UA7ZT-56" target="6ZxEwk8CFZcRqp-UA7ZT-97" edge="1">
          <mxGeometry width="50" height="50" relative="1" as="geometry">
            <mxPoint x="1990" y="940" as="sourcePoint" />
            <mxPoint x="1970" y="860" as="targetPoint" />
          </mxGeometry>
        </mxCell>
        <mxCell id="6ZxEwk8CFZcRqp-UA7ZT-59" value="&lt;font style=&quot;font-size: 13px;&quot;&gt;không&lt;/font&gt;" style="edgeLabel;html=1;align=center;verticalAlign=middle;resizable=0;points=[];" parent="6ZxEwk8CFZcRqp-UA7ZT-57" vertex="1" connectable="0">
          <mxGeometry x="-0.2578" relative="1" as="geometry">
            <mxPoint x="13" as="offset" />
          </mxGeometry>
        </mxCell>
        <mxCell id="6ZxEwk8CFZcRqp-UA7ZT-58" value="Start-0001" style="strokeWidth=2;html=1;shape=mxgraph.flowchart.terminator;whiteSpace=wrap;fillColor=#ffe6cc;strokeColor=#d79b00;" parent="1" vertex="1">
          <mxGeometry x="1953" y="800" width="115" height="50" as="geometry" />
        </mxCell>
        <mxCell id="6ZxEwk8CFZcRqp-UA7ZT-60" value="" style="endArrow=classic;html=1;rounded=0;exitX=0.5;exitY=1;exitDx=0;exitDy=0;edgeStyle=orthogonalEdgeStyle;entryX=1;entryY=1;entryDx=0;entryDy=0;" parent="1" source="6ZxEwk8CFZcRqp-UA7ZT-56" target="6ZxEwk8CFZcRqp-UA7ZT-63" edge="1">
          <mxGeometry width="50" height="50" relative="1" as="geometry">
            <mxPoint x="1950" y="1000" as="sourcePoint" />
            <mxPoint x="440" y="1170" as="targetPoint" />
            <Array as="points">
              <mxPoint x="1614" y="1340" />
              <mxPoint x="460" y="1340" />
            </Array>
          </mxGeometry>
        </mxCell>
        <mxCell id="6ZxEwk8CFZcRqp-UA7ZT-61" value="&lt;font style=&quot;font-size: 13px;&quot;&gt;Báo hoàn 1 phần&lt;/font&gt;" style="edgeLabel;html=1;align=center;verticalAlign=middle;resizable=0;points=[];" parent="6ZxEwk8CFZcRqp-UA7ZT-60" vertex="1" connectable="0">
          <mxGeometry x="-0.1867" y="1" relative="1" as="geometry">
            <mxPoint x="-435" y="-1" as="offset" />
          </mxGeometry>
        </mxCell>
        <mxCell id="6ZxEwk8CFZcRqp-UA7ZT-63" value="Quyết định hoàn 1 phần" style="rhombus;whiteSpace=wrap;html=1;fillColor=#fff2cc;strokeColor=#d6b656;gradientColor=#ffd966;" parent="1" vertex="1">
          <mxGeometry x="400" y="1080" width="80" height="80" as="geometry" />
        </mxCell>
        <mxCell id="6ZxEwk8CFZcRqp-UA7ZT-64" value="" style="endArrow=classic;html=1;rounded=0;entryX=0;entryY=0.5;entryDx=0;entryDy=0;edgeStyle=orthogonalEdgeStyle;" parent="1" target="6ZxEwk8CFZcRqp-UA7ZT-65" edge="1">
          <mxGeometry width="50" height="50" relative="1" as="geometry">
            <mxPoint x="440" y="1080" as="sourcePoint" />
            <mxPoint x="1240" y="1060" as="targetPoint" />
            <Array as="points">
              <mxPoint x="440" y="1050" />
            </Array>
          </mxGeometry>
        </mxCell>
        <mxCell id="6ZxEwk8CFZcRqp-UA7ZT-67" value="&lt;font style=&quot;font-size: 13px;&quot;&gt;Không&lt;/font&gt;" style="edgeLabel;html=1;align=center;verticalAlign=middle;resizable=0;points=[];" parent="6ZxEwk8CFZcRqp-UA7ZT-64" vertex="1" connectable="0">
          <mxGeometry x="-0.3738" relative="1" as="geometry">
            <mxPoint as="offset" />
          </mxGeometry>
        </mxCell>
        <mxCell id="6ZxEwk8CFZcRqp-UA7ZT-65" value="Đang giao hàng" style="rounded=0;whiteSpace=wrap;html=1;fillColor=#1ba1e2;fontColor=#ffffff;strokeColor=#006EAF;" parent="1" vertex="1">
          <mxGeometry x="1280" y="1020" width="120" height="60" as="geometry" />
        </mxCell>
        <mxCell id="6ZxEwk8CFZcRqp-UA7ZT-66" value="" style="endArrow=classic;html=1;rounded=0;exitX=0.5;exitY=1;exitDx=0;exitDy=0;" parent="1" source="6ZxEwk8CFZcRqp-UA7ZT-46" target="6ZxEwk8CFZcRqp-UA7ZT-65" edge="1">
          <mxGeometry width="50" height="50" relative="1" as="geometry">
            <mxPoint x="1720" y="1000" as="sourcePoint" />
            <mxPoint x="1770" y="950" as="targetPoint" />
          </mxGeometry>
        </mxCell>
        <mxCell id="6ZxEwk8CFZcRqp-UA7ZT-68" value="" style="endArrow=classic;html=1;rounded=0;exitX=1;exitY=0.5;exitDx=0;exitDy=0;entryX=0;entryY=0.5;entryDx=0;entryDy=0;edgeStyle=orthogonalEdgeStyle;" parent="1" source="6ZxEwk8CFZcRqp-UA7ZT-63" target="6ZxEwk8CFZcRqp-UA7ZT-72" edge="1">
          <mxGeometry width="50" height="50" relative="1" as="geometry">
            <mxPoint x="740" y="1020" as="sourcePoint" />
            <mxPoint x="440" y="1280" as="targetPoint" />
          </mxGeometry>
        </mxCell>
        <mxCell id="6ZxEwk8CFZcRqp-UA7ZT-69" value="&lt;font style=&quot;font-size: 13px;&quot;&gt;Yêu cầu hoàn 1 phần&lt;/font&gt;" style="edgeLabel;html=1;align=center;verticalAlign=middle;resizable=0;points=[];" parent="6ZxEwk8CFZcRqp-UA7ZT-68" vertex="1" connectable="0">
          <mxGeometry x="-0.2633" y="1" relative="1" as="geometry">
            <mxPoint as="offset" />
          </mxGeometry>
        </mxCell>
        <mxCell id="6ZxEwk8CFZcRqp-UA7ZT-70" value="Update COD &quot;Start-0001&quot;" style="rounded=0;whiteSpace=wrap;html=1;fillColor=#1ba1e2;fontColor=#ffffff;strokeColor=#006EAF;" parent="1" vertex="1">
          <mxGeometry x="790" y="1240" width="120" height="60" as="geometry" />
        </mxCell>
        <mxCell id="6ZxEwk8CFZcRqp-UA7ZT-72" value="Tạo đơn hoàn 1 phần &quot;R-Start-0001&quot;" style="rounded=0;whiteSpace=wrap;html=1;fillColor=#1ba1e2;fontColor=#ffffff;strokeColor=#006EAF;" parent="1" vertex="1">
          <mxGeometry x="790" y="1090" width="120" height="60" as="geometry" />
        </mxCell>
        <mxCell id="6ZxEwk8CFZcRqp-UA7ZT-73" value="" style="endArrow=classic;html=1;rounded=0;exitX=0.5;exitY=1;exitDx=0;exitDy=0;entryX=0.5;entryY=0;entryDx=0;entryDy=0;" parent="1" source="6ZxEwk8CFZcRqp-UA7ZT-72" target="6ZxEwk8CFZcRqp-UA7ZT-70" edge="1">
          <mxGeometry width="50" height="50" relative="1" as="geometry">
            <mxPoint x="830" y="1170" as="sourcePoint" />
            <mxPoint x="870" y="1210" as="targetPoint" />
          </mxGeometry>
        </mxCell>
        <mxCell id="6ZxEwk8CFZcRqp-UA7ZT-76" value="" style="endArrow=classic;html=1;rounded=0;exitX=1;exitY=0.5;exitDx=0;exitDy=0;entryX=0.5;entryY=1;entryDx=0;entryDy=0;edgeStyle=orthogonalEdgeStyle;" parent="1" source="6ZxEwk8CFZcRqp-UA7ZT-72" target="6ZxEwk8CFZcRqp-UA7ZT-42" edge="1">
          <mxGeometry width="50" height="50" relative="1" as="geometry">
            <mxPoint x="1100" y="1450" as="sourcePoint" />
            <mxPoint x="1190" y="1370" as="targetPoint" />
          </mxGeometry>
        </mxCell>
        <mxCell id="6ZxEwk8CFZcRqp-UA7ZT-78" value="" style="endArrow=classic;html=1;rounded=0;exitX=1;exitY=0.5;exitDx=0;exitDy=0;entryX=0;entryY=1;entryDx=0;entryDy=0;edgeStyle=orthogonalEdgeStyle;" parent="1" source="6ZxEwk8CFZcRqp-UA7ZT-70" target="6ZxEwk8CFZcRqp-UA7ZT-65" edge="1">
          <mxGeometry width="50" height="50" relative="1" as="geometry">
            <mxPoint x="1340" y="1170" as="sourcePoint" />
            <mxPoint x="1280" y="1110" as="targetPoint" />
          </mxGeometry>
        </mxCell>
        <mxCell id="6ZxEwk8CFZcRqp-UA7ZT-79" value="Giao thành công" style="rhombus;whiteSpace=wrap;html=1;fillColor=#fff2cc;strokeColor=#d6b656;gradientColor=#ffd966;" parent="1" vertex="1">
          <mxGeometry x="1640" y="1010" width="80" height="80" as="geometry" />
        </mxCell>
        <mxCell id="6ZxEwk8CFZcRqp-UA7ZT-80" value="" style="endArrow=classic;html=1;rounded=0;exitX=0.5;exitY=1;exitDx=0;exitDy=0;entryX=0;entryY=0.5;entryDx=0;entryDy=0;edgeStyle=orthogonalEdgeStyle;" parent="1" source="6ZxEwk8CFZcRqp-UA7ZT-85" target="6ZxEwk8CFZcRqp-UA7ZT-79" edge="1">
          <mxGeometry width="50" height="50" relative="1" as="geometry">
            <mxPoint x="1640" y="1070" as="sourcePoint" />
            <mxPoint x="1690" y="1020" as="targetPoint" />
            <Array as="points">
              <mxPoint x="1570" y="1300" />
            </Array>
          </mxGeometry>
        </mxCell>
        <mxCell id="6ZxEwk8CFZcRqp-UA7ZT-88" value="&lt;font style=&quot;font-size: 13px;&quot;&gt;Đơn hoàn 1 phần&lt;/font&gt;" style="edgeLabel;html=1;align=center;verticalAlign=middle;resizable=0;points=[];" parent="6ZxEwk8CFZcRqp-UA7ZT-80" vertex="1" connectable="0">
          <mxGeometry x="0.0411" relative="1" as="geometry">
            <mxPoint x="-100" y="23" as="offset" />
          </mxGeometry>
        </mxCell>
        <mxCell id="6ZxEwk8CFZcRqp-UA7ZT-83" value="" style="endArrow=classic;html=1;rounded=0;exitX=0.5;exitY=1;exitDx=0;exitDy=0;entryX=1;entryY=0.5;entryDx=0;entryDy=0;edgeStyle=orthogonalEdgeStyle;" parent="1" source="6ZxEwk8CFZcRqp-UA7ZT-79" target="6ZxEwk8CFZcRqp-UA7ZT-90" edge="1">
          <mxGeometry width="50" height="50" relative="1" as="geometry">
            <mxPoint x="1840" y="1270" as="sourcePoint" />
            <mxPoint x="1890" y="1500" as="targetPoint" />
          </mxGeometry>
        </mxCell>
        <mxCell id="g8PS3NxbniQ8ytrqz7fN-3" value="&lt;font style=&quot;font-size: 13px;&quot;&gt;Giao thất bại&lt;/font&gt;" style="edgeLabel;html=1;align=center;verticalAlign=middle;resizable=0;points=[];" parent="6ZxEwk8CFZcRqp-UA7ZT-83" vertex="1" connectable="0">
          <mxGeometry x="-0.5217" y="-2" relative="1" as="geometry">
            <mxPoint as="offset" />
          </mxGeometry>
        </mxCell>
        <mxCell id="6ZxEwk8CFZcRqp-UA7ZT-85" value="Đơn hoàn 1 phần" style="rhombus;whiteSpace=wrap;html=1;fillColor=#fff2cc;strokeColor=#d6b656;gradientColor=#ffd966;" parent="1" vertex="1">
          <mxGeometry x="1300" y="1150" width="80" height="80" as="geometry" />
        </mxCell>
        <mxCell id="6ZxEwk8CFZcRqp-UA7ZT-86" value="" style="endArrow=classic;html=1;rounded=0;entryX=0.5;entryY=0;entryDx=0;entryDy=0;exitX=0.5;exitY=1;exitDx=0;exitDy=0;" parent="1" source="6ZxEwk8CFZcRqp-UA7ZT-65" target="6ZxEwk8CFZcRqp-UA7ZT-85" edge="1">
          <mxGeometry width="50" height="50" relative="1" as="geometry">
            <mxPoint x="1540" y="1170" as="sourcePoint" />
            <mxPoint x="1590" y="1120" as="targetPoint" />
          </mxGeometry>
        </mxCell>
        <mxCell id="6ZxEwk8CFZcRqp-UA7ZT-90" value="Hủy đơn hoàn 1 phần &quot;R-Start-0001&quot;" style="rounded=0;whiteSpace=wrap;html=1;fillColor=#1ba1e2;fontColor=#ffffff;strokeColor=#006EAF;" parent="1" vertex="1">
          <mxGeometry x="1310" y="1510" width="120" height="60" as="geometry" />
        </mxCell>
        <mxCell id="6ZxEwk8CFZcRqp-UA7ZT-91" value="Đơn hoàn" style="rounded=0;whiteSpace=wrap;html=1;fillColor=#1ba1e2;fontColor=#ffffff;strokeColor=#006EAF;" parent="1" vertex="1">
          <mxGeometry x="1310" y="1610" width="120" height="60" as="geometry" />
        </mxCell>
        <mxCell id="6ZxEwk8CFZcRqp-UA7ZT-92" value="" style="endArrow=classic;html=1;rounded=0;exitX=0.5;exitY=1;exitDx=0;exitDy=0;entryX=0.5;entryY=0;entryDx=0;entryDy=0;" parent="1" source="6ZxEwk8CFZcRqp-UA7ZT-90" target="6ZxEwk8CFZcRqp-UA7ZT-91" edge="1">
          <mxGeometry width="50" height="50" relative="1" as="geometry">
            <mxPoint x="1640" y="1370" as="sourcePoint" />
            <mxPoint x="1690" y="1320" as="targetPoint" />
          </mxGeometry>
        </mxCell>
        <mxCell id="6ZxEwk8CFZcRqp-UA7ZT-93" value="&quot;R-Start-0001&quot; trạng thái &quot;Đơn hoàn 1 phần&quot;" style="rounded=0;whiteSpace=wrap;html=1;fillColor=#1ba1e2;fontColor=#ffffff;strokeColor=#006EAF;" parent="1" vertex="1">
          <mxGeometry x="1030" y="1780" width="120" height="60" as="geometry" />
        </mxCell>
        <mxCell id="6ZxEwk8CFZcRqp-UA7ZT-97" value="Thu COD" style="rounded=0;whiteSpace=wrap;html=1;fillColor=#1ba1e2;fontColor=#ffffff;strokeColor=#006EAF;" parent="1" vertex="1">
          <mxGeometry x="1680" y="630" width="120" height="60" as="geometry" />
        </mxCell>
        <mxCell id="6ZxEwk8CFZcRqp-UA7ZT-99" value="Trạng thái &quot;Giao hàng thành công&quot;" style="rounded=0;whiteSpace=wrap;html=1;fillColor=#1ba1e2;fontColor=#ffffff;strokeColor=#006EAF;" parent="1" vertex="1">
          <mxGeometry x="1030" y="1410" width="120" height="60" as="geometry" />
        </mxCell>
        <mxCell id="6ZxEwk8CFZcRqp-UA7ZT-100" value="Đã giao hàng" style="rounded=0;whiteSpace=wrap;html=1;fillColor=#1ba1e2;fontColor=#ffffff;strokeColor=#006EAF;" parent="1" vertex="1">
          <mxGeometry x="1310" y="1410" width="120" height="60" as="geometry" />
        </mxCell>
        <mxCell id="6ZxEwk8CFZcRqp-UA7ZT-101" value="" style="endArrow=classic;html=1;rounded=0;exitX=0.5;exitY=1;exitDx=0;exitDy=0;entryX=1;entryY=0.5;entryDx=0;entryDy=0;edgeStyle=orthogonalEdgeStyle;" parent="1" source="6ZxEwk8CFZcRqp-UA7ZT-97" target="6ZxEwk8CFZcRqp-UA7ZT-100" edge="1">
          <mxGeometry width="50" height="50" relative="1" as="geometry">
            <mxPoint x="1660" y="1170" as="sourcePoint" />
            <mxPoint x="1710" y="1120" as="targetPoint" />
          </mxGeometry>
        </mxCell>
        <mxCell id="6ZxEwk8CFZcRqp-UA7ZT-102" value="" style="endArrow=classic;html=1;rounded=0;exitX=0;exitY=0.5;exitDx=0;exitDy=0;entryX=1;entryY=0.5;entryDx=0;entryDy=0;" parent="1" source="6ZxEwk8CFZcRqp-UA7ZT-100" target="6ZxEwk8CFZcRqp-UA7ZT-99" edge="1">
          <mxGeometry width="50" height="50" relative="1" as="geometry">
            <mxPoint x="1660" y="1370" as="sourcePoint" />
            <mxPoint x="1710" y="1320" as="targetPoint" />
          </mxGeometry>
        </mxCell>
        <mxCell id="6ZxEwk8CFZcRqp-UA7ZT-105" value="" style="endArrow=classic;html=1;rounded=0;entryX=0.5;entryY=0;entryDx=0;entryDy=0;entryPerimeter=0;exitX=1;exitY=0.5;exitDx=0;exitDy=0;edgeStyle=orthogonalEdgeStyle;" parent="1" source="6ZxEwk8CFZcRqp-UA7ZT-97" target="6ZxEwk8CFZcRqp-UA7ZT-58" edge="1">
          <mxGeometry width="50" height="50" relative="1" as="geometry">
            <mxPoint x="2160" y="880" as="sourcePoint" />
            <mxPoint x="1990" y="870" as="targetPoint" />
          </mxGeometry>
        </mxCell>
        <mxCell id="g8PS3NxbniQ8ytrqz7fN-5" value="" style="endArrow=classic;html=1;rounded=0;exitX=0.5;exitY=0;exitDx=0;exitDy=0;entryX=0;entryY=0.5;entryDx=0;entryDy=0;edgeStyle=orthogonalEdgeStyle;" parent="1" source="6ZxEwk8CFZcRqp-UA7ZT-79" target="g8PS3NxbniQ8ytrqz7fN-10" edge="1">
          <mxGeometry width="50" height="50" relative="1" as="geometry">
            <mxPoint x="1990" y="1280" as="sourcePoint" />
            <mxPoint x="1980" y="1170" as="targetPoint" />
          </mxGeometry>
        </mxCell>
        <mxCell id="g8PS3NxbniQ8ytrqz7fN-6" value="&lt;font style=&quot;font-size: 13px;&quot;&gt;Giao thành công&lt;/font&gt;" style="edgeLabel;html=1;align=center;verticalAlign=middle;resizable=0;points=[];" parent="g8PS3NxbniQ8ytrqz7fN-5" vertex="1" connectable="0">
          <mxGeometry x="0.1843" y="-2" relative="1" as="geometry">
            <mxPoint x="-25" y="28" as="offset" />
          </mxGeometry>
        </mxCell>
        <mxCell id="g8PS3NxbniQ8ytrqz7fN-8" value="&quot;Start-0001&quot; trạng thái &quot;Đơn hoàn&quot;" style="rounded=0;whiteSpace=wrap;html=1;fillColor=#1ba1e2;fontColor=#ffffff;strokeColor=#006EAF;" parent="1" vertex="1">
          <mxGeometry x="1030" y="1520" width="120" height="60" as="geometry" />
        </mxCell>
        <mxCell id="g8PS3NxbniQ8ytrqz7fN-9" value="" style="endArrow=classic;html=1;rounded=0;exitX=0;exitY=0.5;exitDx=0;exitDy=0;entryX=1;entryY=0.5;entryDx=0;entryDy=0;edgeStyle=orthogonalEdgeStyle;" parent="1" source="6ZxEwk8CFZcRqp-UA7ZT-91" target="g8PS3NxbniQ8ytrqz7fN-8" edge="1">
          <mxGeometry width="50" height="50" relative="1" as="geometry">
            <mxPoint x="1390" y="1780" as="sourcePoint" />
            <mxPoint x="1440" y="1730" as="targetPoint" />
          </mxGeometry>
        </mxCell>
        <mxCell id="g8PS3NxbniQ8ytrqz7fN-10" value="Giao 1 phần" style="rounded=0;whiteSpace=wrap;html=1;fillColor=#1ba1e2;fontColor=#ffffff;strokeColor=#006EAF;" parent="1" vertex="1">
          <mxGeometry x="1770" y="910" width="120" height="60" as="geometry" />
        </mxCell>
        <mxCell id="g8PS3NxbniQ8ytrqz7fN-11" value="" style="endArrow=classic;html=1;rounded=0;exitX=1;exitY=0.5;exitDx=0;exitDy=0;entryX=0.5;entryY=1;entryDx=0;entryDy=0;entryPerimeter=0;edgeStyle=orthogonalEdgeStyle;" parent="1" source="g8PS3NxbniQ8ytrqz7fN-10" target="6ZxEwk8CFZcRqp-UA7ZT-58" edge="1">
          <mxGeometry width="50" height="50" relative="1" as="geometry">
            <mxPoint x="1890" y="1080" as="sourcePoint" />
            <mxPoint x="1940" y="1030" as="targetPoint" />
          </mxGeometry>
        </mxCell>
        <mxCell id="g8PS3NxbniQ8ytrqz7fN-12" value="" style="endArrow=classic;html=1;rounded=0;exitX=0.5;exitY=1;exitDx=0;exitDy=0;entryX=1;entryY=0.5;entryDx=0;entryDy=0;edgeStyle=orthogonalEdgeStyle;" parent="1" source="g8PS3NxbniQ8ytrqz7fN-10" target="6ZxEwk8CFZcRqp-UA7ZT-93" edge="1">
          <mxGeometry width="50" height="50" relative="1" as="geometry">
            <mxPoint x="1890" y="1280" as="sourcePoint" />
            <mxPoint x="1940" y="1230" as="targetPoint" />
          </mxGeometry>
        </mxCell>
        <mxCell id="g8PS3NxbniQ8ytrqz7fN-13" value="Quét nhập bưu cục" style="rounded=0;whiteSpace=wrap;html=1;fillColor=#1ba1e2;fontColor=#ffffff;strokeColor=#006EAF;" parent="1" vertex="1">
          <mxGeometry x="530" y="1650" width="120" height="60" as="geometry" />
        </mxCell>
        <mxCell id="g8PS3NxbniQ8ytrqz7fN-16" value="Trạng thái &quot;Chờ nhập bưu cục&quot;" style="rounded=0;whiteSpace=wrap;html=1;fillColor=#1ba1e2;fontColor=#ffffff;strokeColor=#006EAF;" parent="1" vertex="1">
          <mxGeometry x="1030" y="1650" width="120" height="60" as="geometry" />
        </mxCell>
        <mxCell id="g8PS3NxbniQ8ytrqz7fN-17" value="" style="endArrow=classic;html=1;rounded=0;exitX=0.5;exitY=0;exitDx=0;exitDy=0;entryX=0.5;entryY=1;entryDx=0;entryDy=0;" parent="1" source="6ZxEwk8CFZcRqp-UA7ZT-93" target="g8PS3NxbniQ8ytrqz7fN-16" edge="1">
          <mxGeometry width="50" height="50" relative="1" as="geometry">
            <mxPoint x="1040" y="1980" as="sourcePoint" />
            <mxPoint x="1030" y="1650" as="targetPoint" />
          </mxGeometry>
        </mxCell>
        <mxCell id="g8PS3NxbniQ8ytrqz7fN-18" value="" style="endArrow=classic;html=1;rounded=0;exitX=0.5;exitY=1;exitDx=0;exitDy=0;entryX=0.5;entryY=0;entryDx=0;entryDy=0;edgeStyle=orthogonalEdgeStyle;" parent="1" source="g8PS3NxbniQ8ytrqz7fN-8" target="g8PS3NxbniQ8ytrqz7fN-16" edge="1">
          <mxGeometry width="50" height="50" relative="1" as="geometry">
            <mxPoint x="1040" y="1980" as="sourcePoint" />
            <mxPoint x="1090" y="1930" as="targetPoint" />
          </mxGeometry>
        </mxCell>
        <mxCell id="g8PS3NxbniQ8ytrqz7fN-19" value="" style="endArrow=classic;html=1;rounded=0;exitX=0;exitY=0.5;exitDx=0;exitDy=0;entryX=1;entryY=0.5;entryDx=0;entryDy=0;" parent="1" source="g8PS3NxbniQ8ytrqz7fN-16" target="g8PS3NxbniQ8ytrqz7fN-13" edge="1">
          <mxGeometry width="50" height="50" relative="1" as="geometry">
            <mxPoint x="940" y="1880" as="sourcePoint" />
            <mxPoint x="990" y="1830" as="targetPoint" />
          </mxGeometry>
        </mxCell>
        <mxCell id="g8PS3NxbniQ8ytrqz7fN-20" value="Trạng thái &quot;Chờ giao hàng&quot;" style="rounded=0;whiteSpace=wrap;html=1;fillColor=#1ba1e2;fontColor=#ffffff;strokeColor=#006EAF;" parent="1" vertex="1">
          <mxGeometry x="1030" y="1890" width="120" height="60" as="geometry" />
        </mxCell>
        <mxCell id="g8PS3NxbniQ8ytrqz7fN-21" value="" style="endArrow=classic;html=1;rounded=0;exitX=0.5;exitY=1;exitDx=0;exitDy=0;entryX=0;entryY=0.5;entryDx=0;entryDy=0;edgeStyle=orthogonalEdgeStyle;" parent="1" source="g8PS3NxbniQ8ytrqz7fN-13" target="g8PS3NxbniQ8ytrqz7fN-20" edge="1">
          <mxGeometry width="50" height="50" relative="1" as="geometry">
            <mxPoint x="940" y="1980" as="sourcePoint" />
            <mxPoint x="990" y="1930" as="targetPoint" />
          </mxGeometry>
        </mxCell>
        <mxCell id="g8PS3NxbniQ8ytrqz7fN-22" value="Quét xuất đơn shipper" style="rounded=0;whiteSpace=wrap;html=1;fillColor=#1ba1e2;fontColor=#ffffff;strokeColor=#006EAF;" parent="1" vertex="1">
          <mxGeometry x="530" y="1970" width="120" height="60" as="geometry" />
        </mxCell>
        <mxCell id="g8PS3NxbniQ8ytrqz7fN-23" value="Trạng thái &quot;Đang giao hàng&quot;" style="rounded=0;whiteSpace=wrap;html=1;fillColor=#1ba1e2;fontColor=#ffffff;strokeColor=#006EAF;" parent="1" vertex="1">
          <mxGeometry x="1030" y="2040" width="120" height="60" as="geometry" />
        </mxCell>
        <mxCell id="g8PS3NxbniQ8ytrqz7fN-24" value="" style="endArrow=classic;html=1;rounded=0;exitX=0.5;exitY=1;exitDx=0;exitDy=0;entryX=1;entryY=0.5;entryDx=0;entryDy=0;edgeStyle=orthogonalEdgeStyle;" parent="1" source="g8PS3NxbniQ8ytrqz7fN-20" target="g8PS3NxbniQ8ytrqz7fN-22" edge="1">
          <mxGeometry width="50" height="50" relative="1" as="geometry">
            <mxPoint x="940" y="2080" as="sourcePoint" />
            <mxPoint x="990" y="2030" as="targetPoint" />
          </mxGeometry>
        </mxCell>
        <mxCell id="g8PS3NxbniQ8ytrqz7fN-25" value="" style="endArrow=classic;html=1;rounded=0;exitX=0.5;exitY=1;exitDx=0;exitDy=0;entryX=0;entryY=0.5;entryDx=0;entryDy=0;edgeStyle=orthogonalEdgeStyle;" parent="1" source="g8PS3NxbniQ8ytrqz7fN-22" target="g8PS3NxbniQ8ytrqz7fN-23" edge="1">
          <mxGeometry width="50" height="50" relative="1" as="geometry">
            <mxPoint x="940" y="2080" as="sourcePoint" />
            <mxPoint x="990" y="2030" as="targetPoint" />
          </mxGeometry>
        </mxCell>
        <mxCell id="g8PS3NxbniQ8ytrqz7fN-26" value="Start-0001&lt;br&gt;R-Start-0001" style="strokeWidth=2;html=1;shape=mxgraph.flowchart.terminator;whiteSpace=wrap;fillColor=#ffe6cc;strokeColor=#d79b00;" parent="1" vertex="1">
          <mxGeometry x="260" y="2175" width="115" height="50" as="geometry" />
        </mxCell>
        <mxCell id="g8PS3NxbniQ8ytrqz7fN-27" value="Trạng thái &quot;Giao hàng thành công&quot;" style="rounded=0;whiteSpace=wrap;html=1;fillColor=#1ba1e2;fontColor=#ffffff;strokeColor=#006EAF;" parent="1" vertex="1">
          <mxGeometry x="1030" y="2170" width="120" height="60" as="geometry" />
        </mxCell>
        <mxCell id="g8PS3NxbniQ8ytrqz7fN-28" value="" style="endArrow=classic;html=1;rounded=0;exitX=0.5;exitY=1;exitDx=0;exitDy=0;entryX=0.5;entryY=0;entryDx=0;entryDy=0;" parent="1" source="g8PS3NxbniQ8ytrqz7fN-23" target="g8PS3NxbniQ8ytrqz7fN-27" edge="1">
          <mxGeometry width="50" height="50" relative="1" as="geometry">
            <mxPoint x="840" y="2200" as="sourcePoint" />
            <mxPoint x="890" y="2150" as="targetPoint" />
          </mxGeometry>
        </mxCell>
        <mxCell id="g8PS3NxbniQ8ytrqz7fN-29" value="" style="endArrow=classic;html=1;rounded=0;exitX=0;exitY=0.5;exitDx=0;exitDy=0;entryX=1;entryY=0.5;entryDx=0;entryDy=0;entryPerimeter=0;" parent="1" source="g8PS3NxbniQ8ytrqz7fN-27" target="g8PS3NxbniQ8ytrqz7fN-26" edge="1">
          <mxGeometry width="50" height="50" relative="1" as="geometry">
            <mxPoint x="840" y="2200" as="sourcePoint" />
            <mxPoint x="890" y="2150" as="targetPoint" />
          </mxGeometry>
        </mxCell>
        <mxCell id="g8PS3NxbniQ8ytrqz7fN-30" style="edgeStyle=orthogonalEdgeStyle;rounded=0;orthogonalLoop=1;jettySize=auto;html=1;exitX=0.5;exitY=1;exitDx=0;exitDy=0;" parent="1" source="g8PS3NxbniQ8ytrqz7fN-23" target="g8PS3NxbniQ8ytrqz7fN-23" edge="1">
          <mxGeometry relative="1" as="geometry" />
        </mxCell>
      </root>
    </mxGraphModel>
  </diagram>
</mxfile>
